<svg width="85" height="85" viewBox="0 0 85 85" fill="none" xmlns="http://www.w3.org/2000/svg">
<path d="M42.4314 5.73001C35.2 5.73001 28.131 7.87436 22.1183 11.8919C16.1056 15.9094 11.4193 21.6197 8.65201 28.3007C5.88468 34.9816 5.16062 42.3331 6.57139 49.4255C7.98216 56.5179 11.4644 63.0328 16.5778 68.1461C21.6911 73.2595 28.2059 76.7417 35.2984 78.1525C42.3908 79.5633 49.7423 78.8392 56.4232 76.0719C63.1042 73.3046 68.8144 68.6182 72.832 62.6056C76.8495 56.5929 78.9939 49.5239 78.9939 42.2925C78.9847 32.5984 75.1296 23.3039 68.2748 16.4491C61.42 9.59427 52.1255 5.7392 42.4314 5.73001ZM20.8515 49.3064C19.715 48.7784 18.7197 47.9886 17.9472 47.0019C17.1747 46.0151 16.6469 44.8594 16.407 43.6293C16.0035 42.1711 15.9124 40.644 16.1398 39.1481C16.3672 37.6523 16.9079 36.2213 17.7265 34.9488C18.5251 33.6121 19.5833 32.4488 20.8386 31.5274C22.0939 30.6061 23.5209 29.9454 25.0355 29.5842C26.6149 29.0895 28.3239 29.22 29.8098 29.9488C30.5109 30.3012 31.1234 30.8074 31.6014 31.4297C32.0794 32.052 32.4106 32.7743 32.5702 33.5425C32.7835 34.4123 32.8131 35.3169 32.6571 36.1988C32.5089 37.1616 32.1274 38.0735 31.5459 38.855L30.6779 40.1571C30.4681 40.4879 30.1747 40.7575 29.8272 40.9384L29.3411 40.5564C29.3411 40.3307 29.4626 40.0009 29.914 39.6016C30.4604 38.9669 30.7729 38.1643 30.7994 37.3272C30.9426 36.4039 30.9131 35.462 30.7126 34.5495C30.4011 33.2378 29.6315 32.0803 28.5425 31.2856C28.0318 30.9121 27.4419 30.6615 26.8186 30.5531C26.1954 30.4447 25.5555 30.4815 24.9487 30.6606C23.9799 30.9044 23.0793 31.3657 22.3152 32.0094C21.5512 32.6532 20.9437 33.4624 20.539 34.3759C19.5898 36.4145 19.417 38.7293 20.0529 40.8863C20.5761 43.3512 21.9612 45.5487 23.9591 47.0842C24.8713 47.7529 25.9275 48.1986 27.0431 48.3856C28.1586 48.5725 29.3024 48.4954 30.3827 48.1606C32.5246 47.6958 34.3964 46.4043 35.5911 44.5668C36.1555 43.6589 36.5188 42.6406 36.6566 41.5805C36.7943 40.5203 36.7033 39.443 36.3897 38.421C35.6932 36.3686 34.7363 34.414 33.5425 32.605L30.4869 27.3967C30.0559 26.5525 29.7071 25.6688 29.4452 24.7578C29.1615 23.5953 29.1566 22.3822 29.4312 21.2176C29.7058 20.0529 30.252 18.9697 31.0251 18.0564C32.7234 15.8213 35.1489 14.2493 37.8828 13.612C39.7194 13.0729 41.6816 13.146 43.473 13.8203C44.1947 14.0923 44.8416 14.5315 45.3607 15.1018C45.8797 15.6722 46.2562 16.3575 46.4591 17.1015C46.6418 17.9009 46.6381 18.7316 46.4485 19.5294C46.2588 20.3271 45.8883 21.0706 45.3654 21.7022C44.2666 23.2275 42.66 24.3109 40.8341 24.7578C40.1223 24.9488 39.7404 24.8793 39.6536 24.5668C39.5668 24.2543 39.8619 23.9592 40.5737 23.7682C41.1339 23.5935 41.6477 23.2953 42.0773 22.8957C42.507 22.4961 42.8415 22.0052 43.0564 21.4592C43.6522 20.2969 43.8004 18.9562 43.473 17.6918C43.3584 17.1283 43.1338 16.5929 42.8121 16.1163C42.4903 15.6396 42.0778 15.2311 41.598 14.914C41.1241 14.6251 40.5935 14.4414 40.0424 14.3755C39.4912 14.3096 38.9323 14.363 38.4036 14.5321C37.8198 14.6548 37.2733 14.9138 36.8087 15.288C36.3441 15.6621 35.9744 16.1407 35.73 16.6849C35.2141 17.9199 35.1526 19.2977 35.5564 20.5738C35.7252 21.2347 35.9518 21.8796 36.2334 22.5008C36.613 23.3 37.0481 24.0716 37.5355 24.8099L39.8619 28.5078C40.9954 30.1786 41.8568 32.0186 42.414 33.9592C42.8851 35.5672 42.946 37.2675 42.5911 38.9051C42.2363 40.5427 41.4771 42.0654 40.3827 43.3342C37.4616 46.4698 33.6405 48.623 29.4452 49.4974C26.6719 50.4132 23.6678 50.3457 20.9383 49.3064H20.8515ZM67.6397 32.9175C66.6848 34.6536 61.98 35.7821 62.6571 34.4453C63.1622 33.3871 63.5972 32.2968 63.9591 31.1814C64.1062 30.612 64.1062 30.0147 63.9591 29.4453C63.5772 27.9175 62.223 27.4488 59.9314 28.039C59.2057 28.2253 58.5017 28.4871 57.8307 28.8203C56.901 29.2661 56.027 29.8197 55.2265 30.4696C53.9936 31.5905 52.9137 32.8688 52.0147 34.2717L49.3237 38.23L47.9001 40.8863L47.1536 42.9349V43.0911L46.6501 44.3585L46.0598 46.3029L45.8168 47.8654V50.105L46.0251 52.4661C46.1604 52.9696 46.4025 53.438 46.735 53.8394C47.0676 54.2409 47.4827 54.5659 47.9522 54.7925C48.9665 55.3441 50.1551 55.481 51.2682 55.1745C52.0947 54.9281 52.8749 54.5468 53.5772 54.046C54.3403 53.5479 55.045 52.9655 55.6779 52.3099L56.6675 50.8516L57.5529 49.1154C57.9182 48.3127 58.22 47.4826 58.4557 46.6328C58.4557 46.5113 52.8654 47.0495 53.1085 45.9557C53.2473 45.4175 53.3689 45.9557 53.5078 45.5217L60.6258 42.8654L61.8064 42.5356L62.605 42.3272C62.8228 42.2165 63.0493 42.1237 63.2821 42.0495C63.7342 41.9026 64.1704 41.7106 64.5841 41.4766L66.3203 40.5564C65.6945 43.8987 64.9006 47.2073 63.9418 50.4696C63.3033 52.581 62.5499 54.6558 61.6848 56.6849C61.4494 57.2096 61.1827 57.7198 60.8862 58.2127C60.2612 59.48 59.48 60.8689 58.5598 62.3967C57.4785 64.1826 56.0709 65.7492 54.4105 67.0148C53.1014 67.966 51.7198 68.8135 50.2786 69.5495C49.13 70.1579 47.9194 70.641 46.6675 70.9904C45.2517 71.4141 43.7429 71.4141 42.3272 70.9904C41.7875 70.8288 41.3005 70.5266 40.9161 70.1147C40.5317 69.7029 40.2638 69.1962 40.1397 68.6467C40.0496 68.226 40.0478 67.7913 40.1345 67.3699C40.2212 66.9485 40.3944 66.5497 40.6432 66.1988C40.8746 65.8017 41.1825 65.4546 41.549 65.1774C41.9156 64.9003 42.3335 64.6986 42.7786 64.5842C43.2031 64.5043 43.6388 64.5043 44.0633 64.5842L44.7404 65.0356C44.9433 65.1968 45.0943 65.4142 45.1744 65.6606L44.723 65.7821L44.3932 65.8689C44.1668 65.9169 43.9541 66.0152 43.7708 66.1564C43.5875 66.2977 43.4383 66.4783 43.3341 66.6849C43.2161 66.8942 43.1429 67.1257 43.119 67.3648C43.0951 67.6038 43.121 67.8453 43.1953 68.0738C43.2837 68.4062 43.4492 68.713 43.6785 68.9694C43.9078 69.2258 44.1942 69.4245 44.5147 69.5495C45.3447 69.8506 46.2541 69.8506 47.0841 69.5495C48.309 69.2299 49.4173 68.5674 50.2786 67.6398C50.1918 67.6398 50.1918 67.5182 50.2786 67.3099C51.6753 65.4995 52.8416 63.5225 53.7508 61.4245L55.3828 56.98L56.7369 52.5009L55.2786 54.7752L54.289 56.0599C53.3458 57.1715 52.2532 58.1472 51.0425 58.9592C49.8699 59.7264 48.5881 60.3117 47.2404 60.6953C46.4375 60.936 45.5941 61.0108 44.7614 60.9153C43.9287 60.8198 43.1242 60.5559 42.3966 60.1397C40.9282 59.1653 39.8951 57.6591 39.5147 55.9384C39.3372 55.221 39.2268 54.4887 39.1848 53.7509C39.1513 52.9623 39.1861 52.1723 39.289 51.3897C39.4105 50.5738 39.5321 49.7925 39.6883 49.046C39.7898 48.459 39.929 47.8791 40.105 47.3099C40.4522 46.4245 43.5772 40.8168 44.2369 39.862C44.9865 38.814 45.8042 37.8164 46.6848 36.8759L49.6536 33.7509C50.5672 32.8527 51.5355 32.012 52.5529 31.2335C53.3862 30.6259 54.4279 29.9314 55.6779 29.1849L58.664 27.7092C59.8435 27.2644 61.0496 26.8933 62.2751 26.5981C65.8747 25.6606 67.9638 26.3377 68.5425 28.6293C68.6817 29.3683 68.6736 30.1276 68.5187 30.8634C68.3638 31.5993 68.0651 32.2974 67.6397 32.9175Z" fill="#A1151A"/>
<path d="M42.4305 85C34.0308 84.9863 25.8234 82.4838 18.845 77.8085C11.8665 73.1333 6.42997 66.495 3.22185 58.732C0.0137405 50.969 -0.822048 42.4294 0.820038 34.1917C2.46212 25.9539 6.50844 18.3875 12.448 12.448C18.3875 6.50844 25.9539 2.46212 34.1916 0.820038C42.4294 -0.822048 50.969 0.0137405 58.732 3.22185C66.495 6.42997 73.1333 11.8665 77.8085 18.845C82.4837 25.8234 84.9863 34.0308 85 42.4305C85.0046 48.0221 83.9066 53.5597 81.7689 58.7266C79.6312 63.8934 76.4957 68.588 72.5419 72.5419C68.588 76.4957 63.8934 79.6312 58.7266 81.7689C53.5597 83.9066 48.0221 85.0046 42.4305 85ZM42.4305 2.76038C34.5666 2.75695 26.8783 5.08573 20.338 9.4522C13.7977 13.8187 8.69929 20.0266 5.68752 27.291C2.67574 34.5553 1.88595 42.5497 3.41802 50.2629C4.95009 57.9761 8.7352 65.0618 14.2946 70.6236C19.854 76.1855 26.938 79.9737 34.6506 81.5091C42.3631 83.0446 50.3578 82.2582 57.6235 79.2496C64.8891 76.2411 71.0993 71.1453 75.4687 64.6069C79.838 58.0686 82.1701 50.3813 82.1701 42.5173C82.177 37.2918 81.1545 32.1161 79.1611 27.2858C77.1677 22.4554 74.2424 18.0649 70.5523 14.3651C66.8621 10.6653 62.4793 7.7285 57.6542 5.72246C52.8291 3.71642 47.656 2.68041 42.4305 2.67357" fill="#D8B243"/>
</svg>
